<?xml version="1.0" encoding="UTF-8" standalone="no"?>
<!-- Created with Inkscape (http://www.inkscape.org/) -->

<svg
   xmlns:dc="http://purl.org/dc/elements/1.1/"
   xmlns:cc="http://creativecommons.org/ns#"
   xmlns:rdf="http://www.w3.org/1999/02/22-rdf-syntax-ns#"
   xmlns:svg="http://www.w3.org/2000/svg"
   xmlns="http://www.w3.org/2000/svg"
   xmlns:sodipodi="http://sodipodi.sourceforge.net/DTD/sodipodi-0.dtd"
   xmlns:inkscape="http://www.inkscape.org/namespaces/inkscape"
   width="210mm"
   height="297mm"
   viewBox="0 0 210 297"
   version="1.1"
   id="svg8"
   sodipodi:docname="colibri.svg"
   inkscape:version="0.92.3 (2405546, 2018-03-11)">
  <defs
     id="defs2" />
  <sodipodi:namedview
     id="base"
     pagecolor="#ffffff"
     bordercolor="#666666"
     borderopacity="1.0"
     inkscape:pageopacity="0.0"
     inkscape:pageshadow="2"
     inkscape:zoom="0.70710678"
     inkscape:cx="492.36025"
     inkscape:cy="684.43138"
     inkscape:document-units="mm"
     inkscape:current-layer="layer1"
     showgrid="false"
     inkscape:window-width="1920"
     inkscape:window-height="1057"
     inkscape:window-x="1912"
     inkscape:window-y="-8"
     inkscape:window-maximized="1" />
  <metadata
     id="metadata5">
    <rdf:RDF>
      <cc:Work
         rdf:about="">
        <dc:format>image/svg+xml</dc:format>
        <dc:type
           rdf:resource="http://purl.org/dc/dcmitype/StillImage" />
      </cc:Work>
    </rdf:RDF>
  </metadata>
  <g
     inkscape:label="Calque 1"
     inkscape:groupmode="layer"
     id="layer1">
    <g
       id="g928"
       transform="matrix(-0.63073109,0,0,0.63073109,181.78996,10.411812)"
       inkscape:export-xdpi="300"
       inkscape:export-ydpi="300">
      <g
         id="g860">
        <g
           id="g879">
          <g
             id="g865"
             inkscape:export-filename="C:\Users\Maxime\g865.png"
             inkscape:export-xdpi="300"
             inkscape:export-ydpi="300"
             transform="translate(23.755318,-9.9713679)">
            <path
               style="opacity:1;fill:#ff8ac5;fill-opacity:1;stroke:none;stroke-width:0.21403123;stroke-miterlimit:4;stroke-dasharray:none;stroke-opacity:1"
               d="m 139.71806,122.64971 c -3.0869,-3.09097 -6.44809,-6.23053 -7.34276,-7.10556 l -1.6267,-1.59097 2.80784,-4.40994 c 3.27696,-5.14673 5.35951,-8.25035 7.15143,-10.657756 7.08636,-9.520404 13.83051,-14.452611 21.52208,-15.621395 1.94337,-0.295311 3.22197,-0.108666 5.06014,-0.06366 8.96459,0.21948 15.80673,-0.653233 23.40746,-3.230443 2.65952,-0.901776 4.83673,-1.772605 10.70388,-4.281263 2.77672,-1.187261 5.94587,-2.502627 7.04256,-2.92304 6.51393,-2.497099 12.43167,-4.029446 18.94284,-4.905087 1.91103,-0.257007 4.16681,-0.461923 3.65561,-0.332085 -0.14622,0.03716 -1.46225,0.360331 -2.9245,0.718204 -8.65804,2.118961 -16.60107,5.023529 -24.39305,8.919932 -10.66602,5.333585 -18.33097,11.372779 -22.65245,17.847843 -0.48209,0.722343 -0.87653,1.626846 -0.87653,1.685052 0,0.08497 -33.45397,31.481208 -34.46015,31.975808 z"
               id="path874"
               inkscape:connector-curvature="0"
               sodipodi:nodetypes="sccssssssscccscscs" />
            <path
               style="opacity:1;fill:#ff2ac1;fill-opacity:1;stroke:none;stroke-width:0.15134294;stroke-miterlimit:4;stroke-dasharray:none;stroke-opacity:1"
               d="M 103.78557,156.24339 C 91.607764,150.4753 81.391927,145.72374 81.065587,145.56611 l -2.044744,-0.55191 4.183364,-3.71267 c 1.74805,-1.77961 6.13911,-5.98731 9.9315,-9.52177 l 7.092073,-6.6097 1.31596,0.59872 c 2.71948,1.23728 5.36274,2.20569 7.47934,2.74017 1.79985,0.4545 2.82482,0.59329 4.41131,0.59735 1.68295,0.004 2.6696,-0.12665 4.11218,-0.74091 l 2.69956,-1.48117 c 8.48266,0.41509 24.48958,1.25125 25.56834,1.65468 0.0139,0.0147 -3.46604,9.46278 -8.92013,19.26163 l -10.41657,19.19116 z"
               id="path876"
               inkscape:connector-curvature="0"
               sodipodi:nodetypes="scccsccsccccscs" />
            <path
               style="opacity:1;fill:#ff45fc;fill-opacity:1;stroke:none;stroke-width:0.21403123;stroke-miterlimit:4;stroke-dasharray:none;stroke-opacity:1"
               d="m 120.38083,126.96562 c -0.33671,-0.008 -0.26375,-0.0981 0.79759,-0.98304 2.42886,-2.02527 5.08535,-5.23278 8.08155,-9.75789 l 1.51617,-2.31201 4.14564,3.63417 c 2.09168,2.03758 5.48651,5.6127 7.1507,7.28 l 3.69825,3.69747 -2.25965,-0.0859 c -1.51875,-0.0746 -3.44294,-0.1865 -11.78609,-0.59095 -10.58805,-0.81738 -11.14033,-0.8769 -11.34416,-0.88182 z"
               id="path878"
               inkscape:connector-curvature="0"
               sodipodi:nodetypes="cccccscccc" />
            <path
               style="opacity:1;fill:#ff3ad9;fill-opacity:1;stroke:none;stroke-width:0.21403123;stroke-miterlimit:4;stroke-dasharray:none;stroke-opacity:1"
               d="m 136.10409,147.03458 c 7.18092,-14.43397 9.57697,-18.36013 9.66664,-18.51026 0.31804,0.61154 8.94993,20.85255 8.90574,20.89638 -0.066,0.0656 -25.15029,15.45285 -25.50763,15.64409 -0.15564,0.0833 -2.80124,1.6612 -2.80124,1.6612 -0.0259,-0.0497 4.99461,-10.16001 9.73649,-19.69141 z"
               id="path880"
               inkscape:connector-curvature="0"
               sodipodi:nodetypes="sccccs" />
            <path
               style="opacity:1;fill:#ff92ea;fill-opacity:1;stroke:none;stroke-width:0.21403123;stroke-miterlimit:4;stroke-dasharray:none;stroke-opacity:1"
               d="m 159.50712,150.10455 c -3.50499,-0.40726 0.17806,-0.0193 -2.92926,-0.41313 -1.04977,-0.13306 -1.92257,-0.26039 -1.93958,-0.28293 -0.0247,-0.0326 -7.29808,-16.98429 -7.83676,-18.32284 l -1.03079,-2.56133 11.80479,-2.54521 c 5.78535,-1.24738 10.20519,-1.39239 10.2529,-1.34469 0.15419,0.15412 -0.60984,4.39662 -1.15324,6.561 -1.15367,4.595 -3.42715,10.62295 -6.68632,17.72829"
               id="path882"
               inkscape:connector-curvature="0"
               sodipodi:nodetypes="cccscscsc" />
            <path
               style="opacity:1;fill:#ff72c1;fill-opacity:1;stroke:none;stroke-width:0.21403123;stroke-miterlimit:4;stroke-dasharray:none;stroke-opacity:1"
               d="m 180.19591,96.699538 c 0.0159,0.01631 -1.58717,3.313982 -1.76636,3.932622 -0.17925,0.61865 -0.39115,1.69513 -0.47103,2.39219 -0.15419,1.34566 -0.4917,2.29915 -2.33078,6.58467 -0.92382,2.15274 -1.51175,3.29543 -3.27796,6.37094 -0.6267,1.09129 -1.90039,3.48498 -2.83042,5.31931 l -1.69094,3.33515 -10.00235,1.76986 c -5.55327,0.98262 -10.53215,1.89419 -12.05534,2.12004 0.33672,-0.4287 34.40129,-31.848683 34.42518,-31.824782 z"
               id="path884"
               inkscape:connector-curvature="0"
               sodipodi:nodetypes="cccccccscc" />
            <path
               style="opacity:1;fill:#d0076d;fill-opacity:1;stroke:none;stroke-width:0.21403123;stroke-miterlimit:4;stroke-dasharray:none;stroke-opacity:1"
               d="m 135.08918,191.09713 c -0.0761,-0.17563 -2.32603,-6.45231 -4.55498,-12.62919 -3.14918,-8.72703 -4.26933,-11.68433 -4.1423,-11.79865 0.0899,-0.0809 6.86855,-4.21024 14.19129,-8.64517 9.28858,-5.62553 13.81897,-8.6064 14.08264,-8.60715 0.38202,-0.001 4.76537,0.63549 4.84129,0.68758 0.0569,0.039 -2.96383,5.9259 -4.49351,8.8223 -5.47245,10.36199 -11.98055,21.02585 -17.88867,29.31154 -1.57193,1.8018 -1.80534,2.66694 -2.03576,2.85874 z"
               id="path886"
               inkscape:connector-curvature="0"
               sodipodi:nodetypes="cscsccscc" />
            <path
               style="opacity:1;fill:#b10a67;fill-opacity:1;stroke:none;stroke-width:0.21403123;stroke-miterlimit:4;stroke-dasharray:none;stroke-opacity:1"
               d="m 93.034197,204.69303 c -0.002,-1.23837 -0.25643,-7.1461 -0.40305,-9.34277 -0.42788,-6.41052 -1.11388,-10.40767 -2.09675,-12.21719 -0.44922,-0.82703 -1.55518,-1.32558 -5.38128,-3.23435 -2.7199,-1.35691 -2.99823,-1.52553 -2.65864,-1.61067 0.20862,-0.0523 10.60841,-2.61798 22.306433,-5.66129 13.68234,-3.55954 21.53518,-6.04686 21.59099,-5.95747 0.0634,0.10154 6.4858,18.14286 8.41913,23.54492 l 0.27815,0.88292 -1.31422,1.62618 c -1.9022,2.42776 -2.44829,3.72299 -3.86619,9.17003 -0.41449,1.59231 -0.79005,2.93392 -0.83458,2.98136 -0.0445,0.0474 -6.99011,0.1518 -15.43462,0.23188 -8.44452,0.0801 -16.535103,0.1778 -17.979073,0.21713 l -2.62541,0.0715 -0.001,-0.70219 z"
               id="path888"
               inkscape:connector-curvature="0"
               sodipodi:nodetypes="cscscsccccccccccc" />
            <path
               style="opacity:1;fill:#ea0581;fill-opacity:1;stroke:none;stroke-width:0.21403123;stroke-miterlimit:4;stroke-dasharray:none;stroke-opacity:1"
               d="m 77.482017,176.08114 c -8.5578,-4.14702 -18.968903,-9.27762 -21.886736,-10.7858 l -3.076834,-1.59036 13.30138,-9.58602 c 7.242174,-5.21927 13.90649,-9.15352 13.98358,-9.12967 0.38133,0.11797 46.587593,21.62276 46.588493,21.68 5.3e-4,0.0366 -10.90206,3.27504 -22.72729,6.3524 -11.825223,3.07736 -20.997953,5.26799 -21.107623,5.31038 -0.11167,0.0432 -2.87898,-1.18677 -5.07497,-2.25093 z"
               id="path890"
               inkscape:connector-curvature="0"
               sodipodi:nodetypes="cccsccscc" />
            <path
               style="opacity:1;fill:#f54acd;fill-opacity:1;stroke:none;stroke-width:0.21403123;stroke-miterlimit:4;stroke-dasharray:none;stroke-opacity:1"
               d="M 37.451961,147.90499 24.066489,132.86767 c 8.728084,-3.25561 8.413091,-3.2099 16.527461,-6.23763 9.460715,-3.5301 16.738364,-5.80215 16.844674,-5.73033 0.09168,0.0619 4.695985,5.11231 10.954493,11.61021 9.39136,9.75057 11.55232,12.33754 11.40539,12.47836 -0.20445,0.19594 -26.758968,18.87965 -27.28006,18.7167 -0.521092,-0.16296 -7.938455,-7.79232 -15.066486,-15.79999 z"
               id="path892"
               inkscape:connector-curvature="0"
               sodipodi:nodetypes="scscsccs" />
            <path
               style="opacity:1;fill:#ff3cf0;fill-opacity:1;stroke:none;stroke-width:0.21403123;stroke-miterlimit:4;stroke-dasharray:none;stroke-opacity:1"
               d="M 67.865434,133.0321 C 56.827306,121.97259 57.186584,120.95554 57.5483,120.86687 c 0.206568,-0.0506 0.864001,-0.13703 1.521281,-0.29252 1.91623,-0.4533 3.155749,-1.25284 3.451516,-2.22636 0.1998,-0.65762 -3.436141,-8.05681 -7.037858,-14.32212 -3.451219,-6.003514 -7.375877,-13.287769 -7.228164,-13.415623 0.02658,-0.023 1.932647,1.329827 4.2357,3.006308 24.950892,18.162745 35.318642,25.121085 44.788232,30.059725 l 3.467213,1.753 c -1.46091,1.51141 -8.331623,7.44747 -8.331623,7.44747 -4.06583,4.12429 -7.78418,7.44049 -9.08354,8.74652 l -3.53255,3.36501 z"
               id="path894"
               inkscape:connector-curvature="0"
               sodipodi:nodetypes="scccscscccccs" />
            <path
               style="opacity:1;fill:#ff5ae6;fill-opacity:1;stroke:none;stroke-width:0.42806247;stroke-miterlimit:4;stroke-dasharray:none;stroke-opacity:1"
               d="M 43.37288,158.88823 C 31.876975,152.63557 21.787059,146.71073 14.607395,141.99702 l -5.1907442,-3.42309 6.8936042,-2.72928 c 3.584154,-1.41901 7.718352,-2.98629 7.834226,-2.98629 0.196064,0 28.398067,30.61336 28.398067,30.83415 0,0.23379 -6.144615,-3.15894 -9.169668,-4.80428 z"
               id="path896"
               inkscape:connector-curvature="0"
               sodipodi:nodetypes="sscssss" />
            <path
               style="opacity:1;fill:#f036ad;fill-opacity:1;stroke:none;stroke-width:0.42806247;stroke-miterlimit:4;stroke-dasharray:none;stroke-opacity:1"
               d="m 5.2213548,135.61655 c -12.111591,-8.80383 -21.5807678,-18.21584 -25.3512728,-25.19823 -0.563577,-1.04366 -0.970795,-1.95146 -0.904925,-2.01733 0.06587,-0.0659 0.817213,0.18869 1.669649,0.56568 12.5779518,5.56256 45.07369,11.63845 65.848154,12.31195 l 10.928525,-0.3895 -26.569547,9.56544 c -11.852154,4.26695 -21.2991342,8.12934 -21.4335362,8.12035 -0.13439,-0.009 -2.359228,-1.62973 -4.187047,-2.95836 z"
               id="path898"
               inkscape:connector-curvature="0"
               sodipodi:nodetypes="ssccscscs" />
            <path
               style="opacity:1;fill:#8c0048;fill-opacity:1;stroke:none;stroke-width:0.42806247;stroke-miterlimit:4;stroke-dasharray:none;stroke-opacity:1"
               d="m 100.13492,222.32911 -6.779553,-2.59098 -0.0711,-6.5272 -0.2492,-7.81572 c 1.39135,-0.20556 9.614223,-0.2825 18.862983,-0.34969 12.88563,-0.0936 17.1449,-0.44306 17.1449,-0.2008 0,0.77109 -2.34007,5.80098 -3.01306,6.24195 -0.40297,0.26403 -0.77491,0.36184 -0.82988,0.21825 -0.70743,-1.84824 -2.19344,-4.31687 -2.7973,-4.64701 -0.67632,-0.36976 -0.81866,-0.35148 -1.95515,0.25101 -2.50551,1.32827 -7.78384,8.09981 -11.92776,15.30206 -0.84133,1.46225 -1.54672,2.67 -1.56753,2.68388 -0.0208,0.0139 -3.08864,-1.1407 -6.81738,-2.56574 z"
               id="path900"
               inkscape:connector-curvature="0"
               sodipodi:nodetypes="cccccsccccsccc" />
            <path
               style="opacity:1;fill:#6a003e;fill-opacity:1;stroke:none;stroke-width:0.42806247;stroke-miterlimit:4;stroke-dasharray:none;stroke-opacity:1"
               d="m 93.574407,269.80278 c -0.26797,-1.92645 -0.20883,-49.41415 -0.21904,-50.06465 1.93201,0.70634 3.76989,1.33626 7.011493,2.59646 l 6.58815,2.56122 -1.67446,3.56186 c -1.05044,2.36897 -1.07639,2.49977 -1.08797,5.48429 -0.007,1.68159 0.0935,4.55293 0.2223,6.38074 l 0.23418,3.32331 -1.34907,4.12089 c -0.74199,2.2665 -1.77666,5.82334 -2.29926,7.90409 -0.93549,3.72468 -2.164863,12.60707 -2.557723,13.95899 -0.11515,0.39624 -0.13411,0.47045 -0.22488,0.85946 -0.21827,0.0352 -0.98072,0.12036 -2.34501,0.30071 l -2.183514,0.50236 z"
               id="path906"
               inkscape:connector-curvature="0"
               sodipodi:nodetypes="ccscccscccscccc" />
          </g>
          <path
             sodipodi:nodetypes="cccccccc"
             inkscape:connector-curvature="0"
             id="path908"
             d="m 119.6126,275.55798 c -0.8317,-1.48305 -1.661,-6.02542 -2.09384,-11.46877 0,0 -0.12724,-2.80577 -0.13864,-3.68831 0.36185,-0.0557 2.3245,0.0101 2.3245,0.0101 2.26883,0.10705 2.26886,0.10705 2.26886,0.10705 0.0756,0.0756 -1.13849,9.12724 -1.96729,14.90693 -0.0914,0.63703 -0.10771,0.64256 -0.39351,0.1329 z"
             style="opacity:1;fill:#4c0036;fill-opacity:1;stroke:none;stroke-width:0.42806247;stroke-miterlimit:4;stroke-dasharray:none;stroke-opacity:1" />
        </g>
      </g>
    </g>
  </g>
</svg>
